<svg id="SvgjsSvg1047" xmlns="http://www.w3.org/2000/svg" version="1.1" xmlns:xlink="http://www.w3.org/1999/xlink" xmlns:svgjs="http://svgjs.com/svgjs" width="21" height="17" viewBox="0 0 21 17"><title>icon_calendar</title><desc>Created with Avocode.</desc><defs id="SvgjsDefs1048"><clipPath id="SvgjsClipPath1058"><path id="SvgjsPath1057" d="M510 1830C510 1829.44772 510.44772 1829 511 1829L530 1829C530.55228 1829 531 1829.44772 531 1830L531 1845C531 1845.55228 530.55228 1846 530 1846L511 1846C510.44772 1846 510 1845.55228 510 1845Z " fill="#ffffff"></path></clipPath><clipPath id="SvgjsClipPath1061"><path id="SvgjsPath1060" d="M514 1834L514 1831L517 1831L517 1834ZM515.5 1833C515.77614 1833 516 1832.77614 516 1832.5C516 1832.22386 515.77614 1832 515.5 1832C515.22386 1832 515 1832.22386 515 1832.5C515 1832.77614 515.22386 1833 515.5 1833Z " fill="#ffffff"></path></clipPath><clipPath id="SvgjsClipPath1064"><path id="SvgjsPath1063" d="M524 1834L524 1831L527 1831L527 1834ZM525.5 1833C525.77614 1833 526 1832.77614 526 1832.5C526 1832.22386 525.77614 1832 525.5 1832C525.22386 1832 525 1832.22386 525 1832.5C525 1832.77614 525.22386 1833 525.5 1833Z " fill="#ffffff"></path></clipPath></defs><path id="SvgjsPath1049" d="M513 1840L513 1838L516 1838L516 1840Z " fill="#ffffff" fill-opacity="1" transform="matrix(1,0,0,1,-510,-1829)"></path><path id="SvgjsPath1050" d="M517 1840L517 1838L520 1838L520 1840Z " fill="#ffffff" fill-opacity="1" transform="matrix(1,0,0,1,-510,-1829)"></path><path id="SvgjsPath1051" d="M521 1840L521 1838L524 1838L524 1840Z " fill="#ffffff" fill-opacity="1" transform="matrix(1,0,0,1,-510,-1829)"></path><path id="SvgjsPath1052" d="M525 1840L525 1838L528 1838L528 1840Z " fill="#ffffff" fill-opacity="1" transform="matrix(1,0,0,1,-510,-1829)"></path><path id="SvgjsPath1053" d="M513 1843L513 1841L516 1841L516 1843Z " fill="#ffffff" fill-opacity="1" transform="matrix(1,0,0,1,-510,-1829)"></path><path id="SvgjsPath1054" d="M517 1843L517 1841L520 1841L520 1843Z " fill="#ffffff" fill-opacity="1" transform="matrix(1,0,0,1,-510,-1829)"></path><path id="SvgjsPath1055" d="M521 1843L521 1841L524 1841L524 1843Z " fill="#ffffff" fill-opacity="1" transform="matrix(1,0,0,1,-510,-1829)"></path><path id="SvgjsPath1056" d="M510 1830C510 1829.44772 510.44772 1829 511 1829L530 1829C530.55228 1829 531 1829.44772 531 1830L531 1845C531 1845.55228 530.55228 1846 530 1846L511 1846C510.44772 1846 510 1845.55228 510 1845Z " fill-opacity="0" fill="#ffffff" stroke-dasharray="0" stroke-linejoin="miter" stroke-linecap="butt" stroke-opacity="1" stroke="#ffffff" stroke-miterlimit="50" stroke-width="2" clip-path="url(&quot;#SvgjsClipPath1058&quot;)" transform="matrix(1,0,0,1,-510,-1829)"></path><path id="SvgjsPath1059" d="M515 1832.5C515 1832.22386 515.22386 1832 515.5 1832C515.77614 1832 516 1832.22386 516 1832.5C516 1832.77614 515.77614 1833 515.5 1833C515.22386 1833 515 1832.77614 515 1832.5Z " fill-opacity="0" fill="#ffffff" stroke-dasharray="0" stroke-linejoin="miter" stroke-linecap="butt" stroke-opacity="1" stroke="#ffffff" stroke-miterlimit="50" stroke-width="2" clip-path="url(&quot;#SvgjsClipPath1061&quot;)" transform="matrix(1,0,0,1,-510,-1829)"></path><path id="SvgjsPath1062" d="M525 1832.5C525 1832.22386 525.22386 1832 525.5 1832C525.77614 1832 526 1832.22386 526 1832.5C526 1832.77614 525.77614 1833 525.5 1833C525.22386 1833 525 1832.77614 525 1832.5Z " fill-opacity="0" fill="#ffffff" stroke-dasharray="0" stroke-linejoin="miter" stroke-linecap="butt" stroke-opacity="1" stroke="#ffffff" stroke-miterlimit="50" stroke-width="2" clip-path="url(&quot;#SvgjsClipPath1064&quot;)" transform="matrix(1,0,0,1,-510,-1829)"></path><path id="SvgjsPath1065" d="M511.5 1835.5L529.5 1835.5 " fill-opacity="0" fill="#ffffff" stroke-dasharray="0" stroke-linejoin="miter" stroke-linecap="square" stroke-opacity="1" stroke="#ffffff" stroke-miterlimit="50" stroke-width="1" transform="matrix(1,0,0,1,-510,-1829)"></path></svg>