<svg id="SvgjsSvg1017" xmlns="http://www.w3.org/2000/svg" version="1.1" xmlns:xlink="http://www.w3.org/1999/xlink" xmlns:svgjs="http://svgjs.com/svgjs" width="17" height="22" viewBox="0 0 17 22"><title>Shape</title><desc>Created with Avocode.</desc><defs id="SvgjsDefs1018"></defs><path id="SvgjsPath1019" d="M23.5 65C21.57 65 20 66.57 20 68.5C20 70.43 21.57 72 23.5 72C25.43 72 27 70.43 27 68.5C27 66.57 25.43 65 23.5 65ZM23.5 70C22.67 70 22 69.33 22 68.5C22 67.67 22.67 67 23.5 67C24.33 67 25 67.67 25 68.5C25 69.33 24.33 70 23.5 70ZM32 68.25C32 69.9 31.5 71.43 30.64 72.72L24.990000000000002 81.21C24.67 81.69 24.12 82 23.500000000000004 82C22.880000000000003 82 22.330000000000005 81.69 22.010000000000005 81.21L16.360000000000007 72.72C15.500000000000007 71.42999999999999 15.000000000000007 69.9 15.000000000000007 68.25C15.000000000000007 63.69 18.810000000000006 60 23.500000000000007 60C28.19000000000001 60 32.00000000000001 63.69 32.00000000000001 68.25ZM30 68.33C30 64.84 27.08 62 23.5 62C19.92 62 17 64.84 17 68.33C17 69.56 17.36 70.74 18.04 71.77L23.5 80L28.96 71.76C29.64 70.74000000000001 30 69.56 30 68.33Z " fill="#01579b" fill-opacity="1" transform="matrix(1,0,0,1,-15,-60)"></path></svg>