<svg id="SvgjsSvg1105" xmlns="http://www.w3.org/2000/svg" version="1.1" xmlns:xlink="http://www.w3.org/1999/xlink" xmlns:svgjs="http://svgjs.com/svgjs" width="74" height="17" viewBox="0 0 74 17"><title>logo_rock</title><desc>Created with Avocode.</desc><defs id="SvgjsDefs1106"></defs><path id="SvgjsPath1107" d="M1371.29 2788.17C1372.05 2785.76 1372.77 2784.15 1373.56 2781.84C1373.83 2781.03 1374.06 2780.58 1373.98 2780.13C1373.85 2779.3900000000003 1373.3600000000001 2779.19 1372.8700000000001 2779.82C1372.7900000000002 2779.9300000000003 1372.72 2780.03 1372.66 2780.15C1372.3600000000001 2780.64 1372.1100000000001 2781.15 1371.78 2781.7400000000002C1370.76 2783.5000000000005 1370 2785.8100000000004 1369.47 2786.6000000000004C1368.79 2787.7000000000003 1367.83 2787.4800000000005 1367.54 2786.3800000000006C1366.76 2786.9500000000007 1365.82 2786.3400000000006 1365.86 2785.3400000000006C1365.8799999999999 2784.4600000000005 1366.12 2783.3300000000004 1366.2299999999998 2782.4200000000005C1366.3899999999999 2781.3100000000004 1366.6999999999998 2778.4600000000005 1366.6799999999998 2776.9400000000005C1366.6599999999999 2776.7400000000007 1366.6399999999999 2776.6000000000004 1366.6 2776.4700000000007C1366.4299999999998 2775.9400000000005 1365.8999999999999 2775.8800000000006 1365.4499999999998 2776.1900000000005C1365.1999999999998 2776.3700000000003 1364.9799999999998 2776.7400000000007 1364.87 2777.2300000000005C1364.6699999999998 2777.9400000000005 1364.61 2778.7000000000003 1364.51 2779.4600000000005C1364.46 2779.9700000000007 1363.62 2784.5200000000004 1363.42 2784.8900000000003C1362.8200000000002 2786.13 1360.69 2784.05 1359.1100000000001 2783.5800000000004C1357.3700000000001 2783.0900000000006 1356.2700000000002 2783.9900000000002 1357.5600000000002 2784.78C1358.42 2785.3100000000004 1361.2900000000002 2787.5600000000004 1362.0000000000002 2788.32C1362.1700000000003 2788.5 1362.2100000000003 2788.52 1362.3900000000003 2788.6800000000003C1362.6400000000003 2788.9300000000003 1362.8000000000004 2789.17 1363.0700000000004 2789.4C1364.6700000000003 2790.87 1367.4800000000005 2791.56 1369.6100000000004 2790.46C1370.0400000000004 2790.2200000000003 1370.1400000000003 2790.13 1370.4500000000003 2789.81C1370.9600000000003 2789.2799999999997 1371.0800000000004 2788.83 1371.2900000000002 2788.17 " fill="#fefefe" fill-opacity="1" transform="matrix(1,0,0,1,-1356,-2776)"></path><path id="SvgjsPath1108" d="M1400 2792L1402.36 2792L1403.35 2787.37C1404.6499999999999 2787.21 1404.6899999999998 2788.13 1404.8899999999999 2789.12L1405.4099999999999 2792L1407.81 2792L1407.23 2789.06C1407.09 2788.35 1406.77 2787.7599999999998 1406.51 2787.47C1406.35 2787.31 1406.21 2787.23 1406.03 2787.0899999999997C1406.41 2786.8399999999997 1406.71 2786.74 1407.01 2786.5599999999995C1407.49 2786.2699999999995 1407.95 2785.8599999999997 1408.41 2785.0499999999993C1408.97 2784.0499999999993 1409.26 2782.519999999999 1408.69 2781.399999999999C1408.13 2780.229999999999 1407.21 2780.0099999999993 1405.5700000000002 2780.0099999999993C1404.0700000000002 2780.0099999999993 1402.5800000000002 2779.9899999999993 1401.0800000000002 2780.0099999999993L1400.7200000000003 2781.9099999999994L1402.0000000000002 2781.9099999999994ZM1404.74 2782.03C1405.82 2781.9900000000002 1407.59 2781.69 1406.81 2784.28C1406.25 2786.13 1405.2 2786.01 1404 2785.9900000000002Z " fill="#fefefe" fill-opacity="1" transform="matrix(1,0,0,1,-1356,-2776)"></path><path id="SvgjsPath1109" d="M1422 2792L1424.17 2792L1424.94 2788.63C1425.8700000000001 2788.55 1425.95 2789.04 1426.16 2790.02L1426.5500000000002 2792L1428.8000000000002 2791.98L1428.4900000000002 2790.47C1428.1600000000003 2789.04 1428.2800000000002 2788.7799999999997 1427.4400000000003 2787.8799999999997L1430.0000000000002 2784.2L1427.6800000000003 2784.22C1427.1100000000004 2785 1426.5900000000004 2785.9599999999996 1426.0700000000004 2786.7599999999998L1425.3500000000004 2786.7599999999998C1425.3100000000004 2786.08 1426.5500000000004 2781.33 1426.7300000000005 2779.9999999999995L1423.1400000000006 2779.9999999999995L1422.7900000000006 2781.8999999999996L1424.0900000000006 2781.8999999999996C1423.8800000000006 2783.5099999999998 1422.0200000000007 2791.18 1422.0000000000007 2791.9999999999995 " fill="#fefefe" fill-opacity="1" transform="matrix(1,0,0,1,-1356,-2776)"></path><path id="SvgjsPath1110" d="M1375 2792L1381.33 2791.98L1381.79 2790L1382 2788.88L1379.95 2788.88L1379.67 2790.08L1378.02 2790.08L1380.18 2780L1376.22 2780.04L1375.75 2781.9L1377.2 2781.9Z " fill="#fefefe" fill-opacity="1" transform="matrix(1,0,0,1,-1356,-2776)"></path><path id="SvgjsPath1111" d="M1410.37 2791.97C1412.26 2792.1699999999996 1413.2299999999998 2791.4399999999996 1413.81 2790.6699999999996C1414.34 2789.97 1414.51 2789.43 1414.73 2788.5799999999995C1415.04 2787.4199999999996 1415.22 2786.0799999999995 1414.49 2785.0899999999997C1413.73 2784.0299999999997 1412.19 2783.6899999999996 1410.72 2784.3099999999995C1409.57 2784.8099999999995 1408.73 2785.7999999999993 1408.3 2787.1599999999994C1408.08 2787.859999999999 1407.94 2788.6799999999994 1408.02 2789.4499999999994C1408.12 2790.5699999999993 1408.65 2791.4099999999994 1409.7 2791.8099999999995C1409.88 2791.8899999999994 1410.0900000000001 2791.9299999999994 1410.3700000000001 2791.9699999999993ZM1410.16 2787.62C1410.3200000000002 2786.92 1410.77 2785.75 1411.5400000000002 2786.0499999999997C1412.14 2786.2499999999995 1412.1700000000003 2788.2899999999995 1411.5400000000002 2789.3399999999997C1411.0500000000002 2790.18 1410.3000000000002 2790.3099999999995 1410.0600000000002 2789.2099999999996C1409.9400000000003 2788.7699999999995 1410.0100000000002 2788.2699999999995 1410.16 2787.6199999999994Z " fill="#fefefe" fill-opacity="1" transform="matrix(1,0,0,1,-1356,-2776)"></path><path id="SvgjsPath1112" d="M1387.81 2791.3L1387.44 2789.7000000000003C1386.42 2790.0400000000004 1384.92 2790.76 1384.52 2789.28C1386.21 2789.42 1387.68 2788.9 1388.52 2787.5C1390.6 2783.99 1385.42 2782.73 1383.19 2785.55C1382.42 2786.52 1382.03 2787.5600000000004 1382 2788.92C1382 2788.92 1381.89 2790.1800000000003 1382.77 2791.2000000000003C1384.09 2792.7200000000003 1386.67 2791.6800000000003 1387.81 2791.3ZM1386.26 2786.02C1386.87 2785.9 1387.09 2786.34 1386.97 2786.87C1386.91 2787.1099999999997 1386.83 2787.33 1386.63 2787.54C1386.2600000000002 2787.91 1385.68 2788.02 1385 2788C1385.12 2787.14 1385.52 2786.19 1386.26 2786.02Z " fill="#fefefe" fill-opacity="1" transform="matrix(1,0,0,1,-1356,-2776)"></path><path id="SvgjsPath1113" d="M1394.06 2786.96C1394.3899999999999 2788.31 1396.27 2788.5 1396.49 2789.12C1396.92 2790.25 1394.92 2790.4 1393.78 2789.44L1393 2791.15C1393.59 2791.94 1395.43 2792.15 1396.59 2791.9C1398 2791.6 1398.8 2790.4 1398.86 2788.9500000000003C1398.8999999999999 2788.28 1398.76 2787.94 1398.1999999999998 2787.4100000000003C1397.7099999999998 2786.9600000000005 1397.1399999999999 2786.8300000000004 1396.6899999999998 2786.51C1396.4499999999998 2786.34 1396.37 2786.2900000000004 1396.3899999999999 2785.9700000000003C1396.4299999999998 2785.4 1396.8799999999999 2785.42 1397.55 2785.44L1397.4099999999999 2786.32L1398.9799999999998 2786.29L1399.9999999999998 2783L1398.0799999999997 2783.02L1397.9799999999998 2783.5099999999998C1397.0199999999998 2783.45 1395.8999999999999 2783.4199999999996 1395.1399999999999 2784.0499999999997C1395.1399999999999 2784.0499999999997 1393.6599999999999 2785.31 1394.06 2786.9599999999996 " fill="#fefefe" fill-opacity="1" transform="matrix(1,0,0,1,-1356,-2776)"></path><path id="SvgjsPath1114" d="M1416.85 2791.33C1417.05 2791.5299999999997 1417.34 2791.72 1417.77 2791.84C1418.25 2792.02 1418.82 2792.04 1419.36 2791.9500000000003C1419.7099999999998 2791.9100000000003 1419.9699999999998 2791.82 1420.1999999999998 2791.76C1420.4899999999998 2791.67 1420.7199999999998 2791.57 1421.0199999999998 2791.44C1421.1299999999997 2791.38 1421.2699999999998 2791.33 1421.3999999999999 2791.25L1421.05 2789.56C1420.3899999999999 2789.7999999999997 1418.02 2791.12 1418.27 2788.12C1418.43 2786.39 1418.92 2785.24 1420.67 2785.47L1420.53 2786.2999999999997L1422.01 2786.2799999999997L1423 2782.9999999999995L1421.19 2782.9999999999995L1421.05 2783.5799999999995C1418.97 2783.3399999999997 1417.85 2783.9799999999996 1416.97 2785.2799999999993C1416.25 2786.3199999999993 1415.92 2787.8199999999993 1416.02 2789.3299999999995C1416.08 2790.0799999999995 1416.31 2790.8199999999993 1416.85 2791.3299999999995 " fill="#fefefe" fill-opacity="1" transform="matrix(1,0,0,1,-1356,-2776)"></path><path id="SvgjsPath1115" d="M1390 2792L1392.05 2792L1393.27 2786.12L1394.42 2786.14L1395 2784.3199999999997L1393.67 2784.3199999999997L1394.1200000000001 2781.9999999999995L1392.2900000000002 2781.9999999999995L1391.6100000000001 2784.3199999999997L1390.5200000000002 2784.3199999999997L1390.1600000000003 2786.12L1391.1000000000004 2786.12Z " fill="#fefefe" fill-opacity="1" transform="matrix(1,0,0,1,-1356,-2776)"></path><path id="SvgjsPath1116" d="M1367.3 2786.18C1367.6499999999999 2785.31 1367.8899999999999 2784.0299999999997 1367.98 2783.24C1368.07 2782.4599999999996 1367.88 2782.14 1367.18 2782.02C1366.99 2781.98 1366.8 2782 1366.6200000000001 2782.16C1366.3600000000001 2782.3799999999997 1366.4 2782.79 1366.2900000000002 2783.46C1366.1200000000001 2784.84 1365.7500000000002 2786.32 1366.2600000000002 2786.81C1366.8000000000002 2787.32 1367.1100000000001 2786.69 1367.3000000000002 2786.18 " fill="#fefefe" fill-opacity="1" transform="matrix(1,0,0,1,-1356,-2776)"></path><path id="SvgjsPath1117" d="M1369.66 2787.26C1370.41 2786.13 1371.3400000000001 2784.1600000000003 1370.8700000000001 2783.5C1370.48 2782.97 1369.3700000000001 2782.69 1369.0500000000002 2783.54C1368.7900000000002 2784.2 1368.5500000000002 2785.22 1368.3700000000001 2785.79C1368.16 2786.41 1367.8300000000002 2787.24 1368.1100000000001 2787.66C1368.6000000000001 2788.42 1369.3300000000002 2787.72 1369.66 2787.2599999999998 " fill="#fefefe" fill-opacity="1" transform="matrix(1,0,0,1,-1356,-2776)"></path><path id="SvgjsPath1118" d="M1395 2784L1396.74 2784L1398 2780L1395.74 2780Z " fill="#fefefe" fill-opacity="1" transform="matrix(1,0,0,1,-1356,-2776)"></path></svg>