<svg id="SvgjsSvg1008" xmlns="http://www.w3.org/2000/svg" version="1.1" xmlns:xlink="http://www.w3.org/1999/xlink" xmlns:svgjs="http://svgjs.com/svgjs" width="22" height="16" viewBox="0 0 22 16"><title>menu</title><desc>Created with Avocode.</desc><defs id="SvgjsDefs1009"></defs><path id="SvgjsPath1010" d="M283.94 18.88H304.04C304.56 18.88 304.98 18.45 304.98 17.939999999999998C304.98 17.419999999999998 304.56 16.999999999999996 304.04 16.999999999999996H283.94C283.42 16.999999999999996 283 17.419999999999998 283 17.939999999999998C283 18.45 283.42 18.88 283.94 18.88Z " fill="#ffffff" fill-opacity="1" transform="matrix(1,0,0,1,-283,-17)"></path><path id="SvgjsPath1011" d="M283.94 25.88H304.04C304.56 25.88 304.98 25.45 304.98 24.939999999999998C304.98 24.419999999999998 304.56 23.999999999999996 304.04 23.999999999999996H283.94C283.42 23.999999999999996 283 24.419999999999998 283 24.939999999999998C283 25.45 283.42 25.88 283.94 25.88Z " fill="#ffffff" fill-opacity="1" transform="matrix(1,0,0,1,-283,-17)"></path><path id="SvgjsPath1012" d="M283.94 32.88H304.04C304.56 32.88 304.98 32.45 304.98 31.94C304.98 31.42 304.56 31 304.04 31H283.94C283.42 31 283 31.42 283 31.94C283 32.45 283.42 32.88 283.94 32.88Z " fill="#ffffff" fill-opacity="1" transform="matrix(1,0,0,1,-283,-17)"></path></svg>