<svg id="SvgjsSvg1009" xmlns="http://www.w3.org/2000/svg" version="1.1" xmlns:xlink="http://www.w3.org/1999/xlink" xmlns:svgjs="http://svgjs.com/svgjs" width="48" height="65" viewBox="0 0 48 65"><title>Rectangle 6</title><desc>Created with Avocode.</desc><defs id="SvgjsDefs1010"><filter id="SvgjsFilter1012" width="200%" height="200%" x="-50%" y="-50%"><feMorphology id="SvgjsFeMorphology1013" operator="dilate" radius="0" result="SvgjsFeMorphology1013Out" in="SourceGraphic"></feMorphology><feOffset id="SvgjsFeOffset1014" dx="0" dy="1" result="SvgjsFeOffset1014Out" in="SvgjsFeMorphology1013Out"></feOffset><feGaussianBlur id="SvgjsFeGaussianBlur1015" stdDeviation="1.5 " result="SvgjsFeGaussianBlur1015Out" in="SvgjsFeOffset1014Out"></feGaussianBlur><feComposite id="SvgjsFeComposite1016" in="SvgjsFeGaussianBlur1015Out" in2="SourceAlpha" operator="out" result="SvgjsFeComposite1016Out"></feComposite></filter></defs><path id="SvgjsPath1011" d="M195 0H237V58.81L216.84 46.370000000000005L195 58.81Z " fill="#000000" fill-opacity="0.5" filter="url(#SvgjsFilter1012)" transform="matrix(1,0,0,1,-192,2)"></path><path id="SvgjsPath1017" d="M195 0H237V58.81L216.84 46.370000000000005L195 58.81Z " fill="#f6a623" fill-opacity="1" transform="matrix(1,0,0,1,-192,2)"></path><path id="SvgjsPath1018" d="M216 27C215.77 27 215.53 26.93 215.34 26.78C214.93 26.450000000000003 214.88 25.880000000000003 215.25 25.51L222.25 18.310000000000002C222.61 17.930000000000003 223.24 17.900000000000002 223.66 18.220000000000002C224.07 18.55 224.12 19.12 223.75 19.490000000000002L216.75 26.69C216.55 26.900000000000002 216.28 27 216 27Z " fill="#ffffff" fill-opacity="1" transform="matrix(1,0,0,1,-192,2)"></path><path id="SvgjsPath1019" d="M215 27C214.74 27 214.49 26.92 214.29 26.76L210.29 23.42C209.9 23.1 209.9 22.57 210.29 22.240000000000002C210.67999999999998 21.92 211.32 21.92 211.70999999999998 22.240000000000002L215.70999999999998 25.580000000000002C216.09999999999997 25.900000000000002 216.09999999999997 26.430000000000003 215.70999999999998 26.76C215.51 26.92 215.26 27 214.99999999999997 27Z " fill="#ffffff" fill-opacity="1" transform="matrix(1,0,0,1,-192,2)"></path><path id="SvgjsPath1020" d="M213.44 36.22C213.4 36.18 213.38 36.129999999999995 213.35 36.08C213.16 35.71 212.85999999999999 35.239999999999995 212.53 35.129999999999995C212.27 35.05 211.86 35.15 211.33 35.419999999999995C211.28 35.44 211.23000000000002 35.46999999999999 211.17000000000002 35.48C210.01000000000002 36.01 208.67000000000002 35.879999999999995 207.63000000000002 35.129999999999995C206.61 34.38999999999999 206.08 33.169999999999995 206.22000000000003 31.919999999999995C206.22000000000003 31.869999999999994 206.22000000000003 31.819999999999993 206.23000000000002 31.759999999999994C206.43 30.539999999999996 206.18 30.199999999999996 204.97000000000003 30.009999999999994C204.92000000000002 29.999999999999993 204.86 29.979999999999993 204.80000000000004 29.959999999999994C203.56000000000003 29.709999999999994 202.56000000000003 28.819999999999993 202.17000000000004 27.629999999999995C201.78000000000006 26.439999999999994 202.07000000000005 25.149999999999995 202.92000000000004 24.219999999999995C202.95000000000005 24.169999999999995 202.98000000000005 24.129999999999995 203.02000000000004 24.089999999999996C203.89000000000004 23.219999999999995 203.89000000000004 22.769999999999996 203.02000000000004 21.909999999999997C202.98000000000005 21.869999999999997 202.95000000000005 21.819999999999997 202.92000000000004 21.779999999999998C202.07000000000005 20.849999999999998 201.78000000000006 19.56 202.17000000000004 18.369999999999997C202.56000000000003 17.169999999999998 203.56000000000003 16.29 204.81000000000003 16.029999999999998C204.86000000000004 16.019999999999996 204.92000000000004 15.999999999999998 204.97000000000003 15.989999999999998C206.18000000000004 15.799999999999999 206.43000000000004 15.459999999999999 206.23000000000002 14.229999999999999C206.23000000000002 14.179999999999998 206.22000000000003 14.129999999999999 206.22000000000003 14.079999999999998C206.08000000000004 12.829999999999998 206.61 11.609999999999998 207.64000000000001 10.869999999999997C208.67000000000002 10.119999999999997 210.01000000000002 9.989999999999997 211.18 10.519999999999998C211.23000000000002 10.539999999999997 211.28 10.559999999999997 211.33 10.579999999999998C211.87 10.849999999999998 212.27 10.949999999999998 212.53 10.869999999999997C212.86 10.759999999999998 213.16 10.289999999999997 213.35 9.919999999999998C213.38 9.869999999999997 213.41 9.819999999999999 213.44 9.779999999999998C214.06 8.679999999999998 215.22 7.999999999999997 216.5 7.999999999999997C217.78 7.999999999999997 218.94 8.679999999999998 219.57 9.789999999999997C219.6 9.829999999999997 219.63 9.869999999999997 219.65 9.919999999999998C219.84 10.289999999999997 220.14000000000001 10.759999999999998 220.47 10.869999999999997C220.73 10.949999999999998 221.14 10.849999999999998 221.67 10.579999999999998C221.72 10.559999999999999 221.76999999999998 10.54 221.82 10.519999999999998C222.98999999999998 9.989999999999998 224.32999999999998 10.119999999999997 225.37 10.869999999999997C226.39000000000001 11.609999999999998 226.92000000000002 12.829999999999998 226.78 14.069999999999997C226.78 14.129999999999997 226.78 14.179999999999996 226.77 14.229999999999997C226.57000000000002 15.459999999999997 226.82000000000002 15.799999999999997 228.03 15.989999999999997C228.08 15.999999999999996 228.14000000000001 16.009999999999998 228.19 16.029999999999998C229.44 16.29 230.44 17.169999999999998 230.82999999999998 18.369999999999997C231.21999999999997 19.56 230.92999999999998 20.849999999999998 230.07999999999998 21.779999999999998C230.04999999999998 21.819999999999997 230.01999999999998 21.869999999999997 229.98 21.909999999999997C229.10999999999999 22.769999999999996 229.10999999999999 23.219999999999995 229.98 24.089999999999996C230.01999999999998 24.129999999999995 230.04999999999998 24.169999999999995 230.07999999999998 24.219999999999995C230.92999999999998 25.149999999999995 231.21999999999997 26.439999999999994 230.82999999999998 27.629999999999995C230.44 28.819999999999997 229.44 29.709999999999994 228.19 29.959999999999994C228.14 29.979999999999993 228.07999999999998 29.999999999999993 228.03 30.009999999999994C226.82 30.199999999999996 226.57 30.539999999999996 226.77 31.759999999999994C226.78 31.819999999999993 226.78 31.869999999999994 226.78 31.929999999999996C226.92 33.169999999999995 226.39000000000001 34.38999999999999 225.37 35.129999999999995C224.33 35.879999999999995 222.99 35.99999999999999 221.82 35.48C221.76999999999998 35.459999999999994 221.72 35.44 221.67 35.419999999999995C221.14 35.14999999999999 220.73 35.05 220.48 35.129999999999995C220.14 35.239999999999995 219.84 35.709999999999994 219.64999999999998 36.08C219.62999999999997 36.129999999999995 219.59999999999997 36.17 219.56999999999996 36.22C218.93999999999997 37.32 217.77999999999997 38 216.49999999999997 38C215.21999999999997 38 214.05999999999997 37.32 213.43999999999997 36.22ZM215.1 35.12C215.37 35.66 215.91 36 216.5 36C217.09 36 217.63 35.66 217.91 35.12C217.93 35.08 217.95 35.04 217.98 35C218.48999999999998 34.06 219.10999999999999 33.49 219.85999999999999 33.25C220.60999999999999 33.02 221.42999999999998 33.13 222.38 33.58C222.43 33.6 222.48 33.62 222.53 33.64C223.07 33.910000000000004 223.69 33.87 224.17 33.52C224.66 33.17 224.89999999999998 32.57 224.79999999999998 31.960000000000004C224.79 31.910000000000004 224.79 31.850000000000005 224.79 31.800000000000004C224.51 29.750000000000004 225.42 28.510000000000005 227.48999999999998 28.130000000000003C227.54 28.12 227.58999999999997 28.110000000000003 227.64999999999998 28.1C228.24999999999997 28 228.73999999999998 27.59 228.92 27.020000000000003C229.10999999999999 26.440000000000005 228.95 25.810000000000002 228.51 25.380000000000003C228.48 25.340000000000003 228.44 25.300000000000004 228.41 25.26C226.98 23.76 226.98 22.240000000000002 228.41 20.740000000000002C228.44 20.700000000000003 228.48 20.660000000000004 228.51 20.62C228.95 20.19 229.10999999999999 19.55 228.92 18.970000000000002C228.73999999999998 18.410000000000004 228.25 17.990000000000002 227.64999999999998 17.900000000000002C227.58999999999997 17.89 227.53999999999996 17.880000000000003 227.48999999999998 17.860000000000003C225.42 17.480000000000004 224.51 16.250000000000004 224.79 14.190000000000003C224.79 14.140000000000002 224.79 14.090000000000003 224.79999999999998 14.040000000000003C224.89999999999998 13.430000000000003 224.66 12.830000000000002 224.17 12.470000000000002C223.69 12.130000000000003 223.07 12.090000000000002 222.53 12.360000000000003C222.48 12.380000000000003 222.43 12.400000000000002 222.38 12.420000000000003C221.43 12.870000000000003 220.6 12.980000000000004 219.85999999999999 12.750000000000004C219.10999999999999 12.510000000000003 218.48999999999998 11.940000000000003 217.98 11.000000000000004C217.95 10.960000000000004 217.92999999999998 10.920000000000003 217.91 10.880000000000004C217.63 10.340000000000003 217.09 10.000000000000004 216.5 10.000000000000004C215.91 10.000000000000004 215.37 10.340000000000003 215.1 10.880000000000004C215.07 10.920000000000003 215.04999999999998 10.970000000000004 215.01999999999998 11.010000000000005C214.51 11.940000000000005 213.89 12.510000000000005 213.14 12.750000000000005C212.39999999999998 12.980000000000006 211.57 12.870000000000005 210.61999999999998 12.420000000000005C210.56999999999996 12.400000000000006 210.51999999999998 12.380000000000006 210.46999999999997 12.360000000000005C209.93999999999997 12.090000000000005 209.30999999999997 12.130000000000004 208.82999999999998 12.480000000000004C208.33999999999997 12.830000000000004 208.1 13.430000000000003 208.2 14.040000000000004C208.20999999999998 14.090000000000005 208.20999999999998 14.140000000000004 208.20999999999998 14.190000000000005C208.48999999999998 16.250000000000004 207.57999999999998 17.480000000000004 205.51 17.870000000000005C205.45999999999998 17.880000000000006 205.41 17.890000000000004 205.35 17.900000000000006C204.75 18.000000000000007 204.26999999999998 18.410000000000007 204.07999999999998 18.980000000000004C203.89 19.560000000000002 204.04999999999998 20.190000000000005 204.48999999999998 20.620000000000005C204.52999999999997 20.660000000000004 204.55999999999997 20.700000000000003 204.58999999999997 20.740000000000006C206.01999999999998 22.240000000000006 206.01999999999998 23.760000000000005 204.58999999999997 25.260000000000005C204.55999999999997 25.300000000000004 204.52999999999997 25.340000000000003 204.48999999999998 25.380000000000006C204.04999999999998 25.820000000000007 203.89 26.450000000000006 204.07999999999998 27.020000000000007C204.26999999999998 27.590000000000007 204.74999999999997 28.010000000000005 205.35 28.10000000000001C205.41 28.11000000000001 205.46 28.120000000000008 205.51 28.140000000000008C207.57999999999998 28.520000000000007 208.48999999999998 29.750000000000007 208.20999999999998 31.81000000000001C208.20999999999998 31.86000000000001 208.20999999999998 31.91000000000001 208.2 31.960000000000008C208.1 32.57000000000001 208.33999999999997 33.17000000000001 208.82999999999998 33.53000000000001C209.30999999999997 33.87000000000001 209.94 33.92000000000001 210.46999999999997 33.64000000000001C210.51999999999998 33.620000000000005 210.56999999999996 33.60000000000001 210.61999999999998 33.580000000000005C211.56999999999996 33.13 212.39999999999998 33.02 213.14 33.25000000000001C213.89 33.49000000000001 214.51 34.06000000000001 215.01999999999998 34.99000000000001C215.04999999999998 35.03000000000001 215.07 35.08000000000001 215.1 35.12000000000001Z " fill="#ffffff" fill-opacity="1" transform="matrix(1,0,0,1,-192,2)"></path></svg>