<svg id="SvgjsSvg1008" xmlns="http://www.w3.org/2000/svg" version="1.1" xmlns:xlink="http://www.w3.org/1999/xlink" xmlns:svgjs="http://svgjs.com/svgjs" width="48" height="56" viewBox="0 0 48 56"><title>Rectangle 6</title><desc>Created with Avocode.</desc><defs id="SvgjsDefs1009"><filter id="SvgjsFilter1011" width="200%" height="200%" x="-50%" y="-50%"><feMorphology id="SvgjsFeMorphology1012" operator="dilate" radius="0" result="SvgjsFeMorphology1012Out" in="SourceGraphic"></feMorphology><feOffset id="SvgjsFeOffset1013" dx="0" dy="1" result="SvgjsFeOffset1013Out" in="SvgjsFeMorphology1012Out"></feOffset><feGaussianBlur id="SvgjsFeGaussianBlur1014" stdDeviation="1.5 " result="SvgjsFeGaussianBlur1014Out" in="SvgjsFeOffset1013Out"></feGaussianBlur><feComposite id="SvgjsFeComposite1015" in="SvgjsFeGaussianBlur1014Out" in2="SourceAlpha" operator="out" result="SvgjsFeComposite1015Out"></feComposite></filter></defs><path id="SvgjsPath1010" d="M1037 0L1079 0L1079 49.69L1058.84 39.17L1037 49.69Z " fill="#000000" fill-opacity="0.5" filter="url(#SvgjsFilter1011)" transform="matrix(1,0,0,1,-1034,2)"></path><path id="SvgjsPath1016" d="M1037 0L1079 0L1079 49.69L1058.84 39.17L1037 49.69Z " fill="#f6a623" fill-opacity="1" transform="matrix(1,0,0,1,-1034,2)"></path><path id="SvgjsPath1017" d="M1058 24C1057.77 24 1057.53 23.93 1057.34 23.78C1056.9299999999998 23.450000000000003 1056.8799999999999 22.880000000000003 1057.25 22.51L1064.25 15.310000000000002C1064.61 14.930000000000001 1065.24 14.900000000000002 1065.66 15.220000000000002C1066.0700000000002 15.550000000000002 1066.1200000000001 16.12 1065.75 16.490000000000002L1058.75 23.69C1058.55 23.900000000000002 1058.28 24 1058 24Z " fill="#ffffff" fill-opacity="1" transform="matrix(1,0,0,1,-1034,2)"></path><path id="SvgjsPath1018" d="M1057 24C1056.74 24 1056.49 23.92 1056.29 23.76L1052.29 20.42C1051.8999999999999 20.1 1051.8999999999999 19.57 1052.29 19.240000000000002C1052.68 18.92 1053.32 18.92 1053.71 19.240000000000002L1057.71 22.580000000000002C1058.1000000000001 22.900000000000002 1058.1000000000001 23.430000000000003 1057.71 23.76C1057.51 23.92 1057.26 24 1057 24Z " fill="#ffffff" fill-opacity="1" transform="matrix(1,0,0,1,-1034,2)"></path><path id="SvgjsPath1019" d="M1055.44 33.22C1055.4 33.18 1055.38 33.129999999999995 1055.3500000000001 33.08C1055.16 32.71 1054.8600000000001 32.239999999999995 1054.5300000000002 32.129999999999995C1054.2700000000002 32.05 1053.8600000000001 32.15 1053.3300000000002 32.419999999999995C1053.2800000000002 32.44 1053.2300000000002 32.46999999999999 1053.17 32.48C1052.01 33.01 1050.67 32.879999999999995 1049.63 32.129999999999995C1048.6100000000001 31.389999999999997 1048.0800000000002 30.169999999999995 1048.22 28.919999999999995C1048.22 28.869999999999994 1048.22 28.819999999999993 1048.23 28.759999999999994C1048.43 27.539999999999996 1048.18 27.199999999999996 1046.97 27.009999999999994C1046.92 26.999999999999993 1046.8600000000001 26.979999999999993 1046.8 26.959999999999994C1045.56 26.709999999999994 1044.56 25.819999999999993 1044.1699999999998 24.629999999999995C1043.7799999999997 23.439999999999994 1044.07 22.149999999999995 1044.9199999999998 21.219999999999995C1044.9499999999998 21.169999999999995 1044.9799999999998 21.129999999999995 1045.0199999999998 21.089999999999996C1045.8899999999996 20.219999999999995 1045.8899999999996 19.769999999999996 1045.0199999999998 18.909999999999997C1044.9799999999998 18.869999999999997 1044.9499999999998 18.819999999999997 1044.9199999999998 18.779999999999998C1044.07 17.849999999999998 1043.7799999999997 16.56 1044.1699999999998 15.369999999999997C1044.56 14.169999999999998 1045.56 13.289999999999997 1046.81 13.029999999999998C1046.86 13.019999999999998 1046.9199999999998 12.999999999999998 1046.97 12.989999999999998C1048.18 12.799999999999999 1048.43 12.459999999999999 1048.23 11.229999999999999C1048.23 11.179999999999998 1048.22 11.129999999999999 1048.22 11.079999999999998C1048.08 9.829999999999998 1048.6100000000001 8.609999999999998 1049.64 7.869999999999998C1050.67 7.119999999999998 1052.01 6.989999999999998 1053.18 7.519999999999999C1053.23 7.539999999999998 1053.28 7.559999999999999 1053.3300000000002 7.579999999999998C1053.8700000000001 7.849999999999998 1054.2700000000002 7.949999999999998 1054.5300000000002 7.869999999999998C1054.8600000000001 7.759999999999998 1055.1600000000003 7.289999999999998 1055.3500000000001 6.919999999999998C1055.38 6.869999999999998 1055.41 6.8199999999999985 1055.44 6.7799999999999985C1056.06 5.679999999999998 1057.22 4.999999999999998 1058.5 4.999999999999998C1059.78 4.999999999999998 1060.94 5.679999999999998 1061.57 6.789999999999998C1061.6 6.829999999999998 1061.6299999999999 6.869999999999998 1061.6499999999999 6.919999999999998C1061.84 7.289999999999998 1062.1399999999999 7.759999999999998 1062.4699999999998 7.869999999999998C1062.7299999999998 7.949999999999998 1063.1399999999999 7.849999999999999 1063.6699999999998 7.579999999999998C1063.7199999999998 7.559999999999999 1063.7699999999998 7.539999999999998 1063.82 7.519999999999999C1064.99 6.989999999999998 1066.33 7.119999999999998 1067.37 7.869999999999998C1068.3899999999999 8.609999999999998 1068.9199999999998 9.829999999999998 1068.78 11.069999999999999C1068.78 11.129999999999999 1068.78 11.179999999999998 1068.77 11.229999999999999C1068.57 12.459999999999999 1068.82 12.799999999999999 1070.03 12.989999999999998C1070.08 12.999999999999998 1070.1399999999999 13.009999999999998 1070.19 13.029999999999998C1071.44 13.289999999999997 1072.44 14.169999999999998 1072.8300000000002 15.369999999999997C1073.2200000000003 16.56 1072.93 17.849999999999998 1072.0800000000002 18.779999999999998C1072.0500000000002 18.819999999999997 1072.0200000000002 18.869999999999997 1071.9800000000002 18.909999999999997C1071.1100000000004 19.769999999999996 1071.1100000000004 20.219999999999995 1071.9800000000002 21.089999999999996C1072.0200000000002 21.129999999999995 1072.0500000000002 21.169999999999995 1072.0800000000002 21.219999999999995C1072.93 22.149999999999995 1073.2200000000003 23.439999999999994 1072.8300000000002 24.629999999999995C1072.44 25.819999999999997 1071.44 26.709999999999994 1070.19 26.959999999999994C1070.14 26.979999999999993 1070.0800000000002 26.999999999999993 1070.03 27.009999999999994C1068.82 27.199999999999996 1068.57 27.539999999999996 1068.77 28.759999999999994C1068.78 28.819999999999993 1068.78 28.869999999999994 1068.78 28.929999999999996C1068.92 30.169999999999995 1068.3899999999999 31.389999999999997 1067.37 32.129999999999995C1066.33 32.879999999999995 1064.9899999999998 32.99999999999999 1063.82 32.48C1063.77 32.459999999999994 1063.72 32.44 1063.6699999999998 32.419999999999995C1063.1399999999999 32.14999999999999 1062.7299999999998 32.05 1062.4799999999998 32.129999999999995C1062.1399999999999 32.239999999999995 1061.8399999999997 32.709999999999994 1061.6499999999999 33.08C1061.6299999999999 33.129999999999995 1061.6 33.17 1061.57 33.22C1060.9399999999998 34.32 1059.78 35 1058.5 35C1057.22 35 1056.06 34.32 1055.44 33.22ZM1057.1 32.12C1057.37 32.66 1057.9099999999999 33 1058.5 33C1059.09 33 1059.63 32.66 1059.91 32.12C1059.93 32.08 1059.95 32.04 1059.98 31.999999999999996C1060.49 31.059999999999995 1061.1100000000001 30.489999999999995 1061.8600000000001 30.249999999999996C1062.6100000000001 30.019999999999996 1063.43 30.129999999999995 1064.38 30.579999999999995C1064.43 30.599999999999994 1064.48 30.619999999999994 1064.5300000000002 30.639999999999993C1065.0700000000002 30.909999999999993 1065.6900000000003 30.869999999999994 1066.1700000000003 30.519999999999992C1066.6600000000003 30.16999999999999 1066.9000000000003 29.569999999999993 1066.8000000000004 28.959999999999994C1066.7900000000004 28.909999999999993 1066.7900000000004 28.849999999999994 1066.7900000000004 28.799999999999994C1066.5100000000004 26.749999999999993 1067.4200000000005 25.509999999999994 1069.4900000000005 25.129999999999995C1069.5400000000004 25.119999999999994 1069.5900000000004 25.109999999999996 1069.6500000000005 25.099999999999994C1070.2500000000005 24.999999999999993 1070.7400000000005 24.589999999999993 1070.9200000000005 24.019999999999996C1071.1100000000006 23.439999999999998 1070.9500000000005 22.809999999999995 1070.5100000000004 22.379999999999995C1070.4800000000005 22.339999999999996 1070.4400000000005 22.299999999999997 1070.4100000000005 22.259999999999994C1068.9800000000005 20.759999999999994 1068.9800000000005 19.239999999999995 1070.4100000000005 17.739999999999995C1070.4400000000005 17.699999999999996 1070.4800000000005 17.659999999999997 1070.5100000000004 17.619999999999994C1070.9500000000005 17.189999999999994 1071.1100000000004 16.549999999999994 1070.9200000000005 15.969999999999994C1070.7400000000005 15.409999999999993 1070.2500000000005 14.989999999999993 1069.6500000000005 14.899999999999993C1069.5900000000006 14.889999999999993 1069.5400000000006 14.879999999999994 1069.4900000000005 14.859999999999994C1067.4200000000005 14.479999999999993 1066.5100000000004 13.249999999999995 1066.7900000000004 11.189999999999994C1066.7900000000004 11.139999999999993 1066.7900000000004 11.089999999999995 1066.8000000000004 11.039999999999994C1066.9000000000003 10.429999999999994 1066.6600000000003 9.829999999999995 1066.1700000000003 9.469999999999994C1065.6900000000003 9.129999999999994 1065.0700000000004 9.089999999999993 1064.5300000000002 9.359999999999994C1064.4800000000002 9.379999999999994 1064.4300000000003 9.399999999999993 1064.38 9.419999999999995C1063.43 9.869999999999994 1062.6000000000001 9.979999999999995 1061.8600000000001 9.749999999999995C1061.1100000000001 9.509999999999994 1060.4900000000002 8.939999999999994 1059.98 7.999999999999995C1059.95 7.959999999999995 1059.93 7.919999999999995 1059.91 7.879999999999995C1059.63 7.3399999999999945 1059.0900000000001 6.999999999999995 1058.5 6.999999999999995C1057.91 6.999999999999995 1057.37 7.3399999999999945 1057.1 7.879999999999995C1057.07 7.919999999999995 1057.05 7.969999999999994 1057.02 8.009999999999994C1056.51 8.939999999999994 1055.8899999999999 9.509999999999994 1055.1399999999999 9.749999999999995C1054.3999999999999 9.979999999999995 1053.57 9.869999999999994 1052.62 9.419999999999995C1052.57 9.399999999999995 1052.52 9.379999999999995 1052.4699999999998 9.359999999999994C1051.9399999999998 9.089999999999995 1051.3099999999997 9.129999999999994 1050.8299999999997 9.479999999999993C1050.3399999999997 9.829999999999993 1050.0999999999997 10.429999999999993 1050.1999999999996 11.039999999999994C1050.2099999999996 11.089999999999995 1050.2099999999996 11.139999999999993 1050.2099999999996 11.189999999999994C1050.4899999999996 13.249999999999995 1049.5799999999995 14.479999999999993 1047.5099999999995 14.869999999999994C1047.4599999999996 14.879999999999994 1047.4099999999996 14.889999999999993 1047.3499999999995 14.899999999999993C1046.7499999999995 14.999999999999993 1046.2699999999995 15.409999999999993 1046.0799999999995 15.979999999999993C1045.8899999999994 16.55999999999999 1046.0499999999995 17.189999999999994 1046.4899999999996 17.619999999999994C1046.5299999999995 17.659999999999993 1046.5599999999995 17.699999999999992 1046.5899999999995 17.739999999999995C1048.0199999999995 19.239999999999995 1048.0199999999995 20.759999999999994 1046.5899999999995 22.259999999999994C1046.5599999999995 22.299999999999994 1046.5299999999995 22.339999999999993 1046.4899999999996 22.379999999999995C1046.0499999999995 22.819999999999997 1045.8899999999996 23.449999999999996 1046.0799999999995 24.019999999999996C1046.2699999999995 24.589999999999996 1046.7499999999995 25.009999999999994 1047.3499999999995 25.099999999999994C1047.4099999999994 25.109999999999996 1047.4599999999994 25.119999999999994 1047.5099999999995 25.139999999999993C1049.5799999999995 25.519999999999992 1050.4899999999996 26.749999999999993 1050.2099999999996 28.809999999999995C1050.2099999999996 28.859999999999996 1050.2099999999996 28.909999999999997 1050.1999999999996 28.959999999999994C1050.0999999999997 29.569999999999993 1050.3399999999997 30.169999999999995 1050.8299999999997 30.529999999999994C1051.3099999999997 30.869999999999994 1051.9399999999996 30.919999999999995 1052.4699999999998 30.639999999999993C1052.5199999999998 30.619999999999994 1052.5699999999997 30.599999999999994 1052.62 30.579999999999995C1053.57 30.129999999999995 1054.3999999999999 30.019999999999996 1055.1399999999999 30.249999999999996C1055.8899999999999 30.489999999999995 1056.5099999999998 31.059999999999995 1057.02 31.989999999999995C1057.05 32.029999999999994 1057.07 32.08 1057.1 32.12Z " fill="#ffffff" fill-opacity="1" transform="matrix(1,0,0,1,-1034,2)"></path></svg>