<svg id="SvgjsSvg1024" xmlns="http://www.w3.org/2000/svg" version="1.1" xmlns:xlink="http://www.w3.org/1999/xlink" xmlns:svgjs="http://svgjs.com/svgjs" width="15" height="14" viewBox="0 0 15 14"><title>Shape</title><desc>Created with Avocode.</desc><defs id="SvgjsDefs1025"></defs><path id="SvgjsPath1026" d="M817.79 79.64L815.81 81.6C815.7299999999999 81.69999999999999 815.6099999999999 81.78 815.4699999999999 81.85C815.3199999999999 81.91999999999999 815.18 81.97 815.04 81.99C815.03 81.99 815 81.99 814.9599999999999 81.99C814.91 82 814.8399999999999 82 814.7599999999999 82C814.5699999999998 82 814.2699999999999 81.97 813.8499999999999 81.9C813.43 81.84 812.92 81.68 812.31 81.43C811.6999999999999 81.18 811.01 80.80000000000001 810.2399999999999 80.29C809.4699999999999 79.79 808.6499999999999 79.10000000000001 807.7799999999999 78.22000000000001C807.0899999999998 77.54 806.5199999999999 76.88000000000001 806.0599999999998 76.26000000000002C805.6099999999998 75.64000000000001 805.2399999999998 75.06000000000002 804.9699999999998 74.53000000000002C804.6899999999998 74.00000000000001 804.4799999999998 73.52000000000001 804.3399999999998 73.09000000000002C804.2099999999998 72.66000000000001 804.1099999999998 72.29000000000002 804.0599999999998 71.98000000000002C804.0099999999999 71.67000000000002 803.9899999999998 71.43000000000002 803.9999999999999 71.25000000000001C804.0099999999999 71.07000000000001 804.0199999999999 70.97000000000001 804.0199999999999 70.95000000000002C804.0399999999998 70.81000000000002 804.0799999999998 70.67000000000002 804.1499999999999 70.53000000000002C804.2199999999999 70.39000000000001 804.2999999999998 70.27000000000001 804.3999999999999 70.18000000000002L806.3699999999999 68.21000000000002C806.5099999999999 68.07000000000002 806.6699999999998 68.00000000000003 806.8499999999999 68.00000000000003C806.9799999999999 68.00000000000003 807.0899999999999 68.04000000000003 807.1899999999999 68.11000000000003C807.29 68.19000000000003 807.3699999999999 68.28000000000003 807.4399999999999 68.39000000000003L809.03 71.40000000000003C809.12 71.55000000000004 809.14 71.73000000000003 809.1 71.92000000000003C809.0600000000001 72.10000000000004 808.98 72.26000000000003 808.85 72.39000000000003L808.12 73.12000000000003C808.1 73.14000000000003 808.09 73.17000000000003 808.07 73.21000000000004C808.0600000000001 73.26000000000003 808.0500000000001 73.29000000000003 808.0500000000001 73.32000000000004C808.09 73.53000000000003 808.1800000000001 73.77000000000004 808.32 74.04000000000003C808.4300000000001 74.27000000000004 808.62 74.56000000000003 808.86 74.90000000000003C809.11 75.24000000000004 809.46 75.64000000000003 809.92 76.08000000000004C810.36 76.54000000000003 810.76 76.89000000000004 811.0999999999999 77.14000000000004C811.4499999999999 77.40000000000005 811.7399999999999 77.58000000000004 811.9699999999999 77.70000000000005C812.1999999999999 77.82000000000005 812.3799999999999 77.89000000000004 812.4999999999999 77.91000000000004L812.6899999999999 77.95000000000005C812.7099999999999 77.95000000000005 812.7399999999999 77.94000000000004 812.78 77.93000000000005C812.8299999999999 77.91000000000005 812.86 77.90000000000005 812.88 77.88000000000005L813.72 77.02000000000005C813.9 76.86000000000006 814.11 76.78000000000006 814.35 76.78000000000006C814.52 76.78000000000006 814.65 76.81000000000006 814.75 76.87000000000006L817.62 78.56000000000006C817.83 78.69000000000005 817.95 78.85000000000007 817.99 79.05000000000005C818.02 79.28000000000006 817.95 79.47000000000006 817.79 79.64000000000006Z " fill="#f6a623" fill-opacity="1" transform="matrix(1,0,0,1,-803,-68)"></path></svg>