<svg id="SvgjsSvg1000" xmlns="http://www.w3.org/2000/svg" version="1.1" xmlns:xlink="http://www.w3.org/1999/xlink" xmlns:svgjs="http://svgjs.com/svgjs" width="18" height="16" viewBox="0 0 18 16"><title>Shape</title><desc>Created with Avocode.</desc><defs id="SvgjsDefs1001"></defs><path id="SvgjsPath1007" d="M267.76 30.31L265.5 32.54C265.4 32.66 265.27 32.75 265.1 32.83C264.94 32.91 264.78000000000003 32.96 264.62 32.98C264.61 32.98 264.58 32.989999999999995 264.52 32.989999999999995C264.46 32.99999999999999 264.39 32.99999999999999 264.29999999999995 32.99999999999999C264.09 32.99999999999999 263.73999999999995 32.959999999999994 263.25999999999993 32.88999999999999C262.7799999999999 32.81999999999999 262.18999999999994 32.63999999999999 261.49999999999994 32.349999999999994C260.79999999999995 32.059999999999995 260.00999999999993 31.629999999999995 259.12999999999994 31.049999999999994C258.24999999999994 30.469999999999995 257.31999999999994 29.679999999999993 256.31999999999994 28.679999999999993C255.52999999999994 27.89999999999999 254.87999999999994 27.14999999999999 254.35999999999993 26.43999999999999C253.83999999999992 25.72999999999999 253.41999999999993 25.06999999999999 253.09999999999994 24.46999999999999C252.78999999999994 23.859999999999992 252.54999999999993 23.30999999999999 252.38999999999993 22.819999999999993C252.22999999999993 22.329999999999995 252.12999999999994 21.909999999999993 252.06999999999994 21.549999999999994C252.00999999999993 21.189999999999994 251.98999999999992 20.919999999999995 251.99999999999994 20.709999999999994C252.00999999999993 20.509999999999994 252.01999999999995 20.399999999999995 252.01999999999995 20.369999999999994C252.03999999999996 20.209999999999994 252.08999999999995 20.049999999999994 252.16999999999996 19.889999999999993C252.24999999999997 19.729999999999993 252.34999999999997 19.589999999999993 252.45999999999995 19.489999999999995L254.70999999999995 17.239999999999995C254.86999999999995 17.079999999999995 255.04999999999995 16.999999999999996 255.24999999999994 16.999999999999996C255.39999999999995 16.999999999999996 255.52999999999994 17.039999999999996 255.63999999999993 17.129999999999995C255.75999999999993 17.209999999999994 255.84999999999994 17.319999999999997 255.92999999999992 17.439999999999994L257.7399999999999 20.879999999999995C257.8499999999999 21.059999999999995 257.8699999999999 21.259999999999994 257.82999999999987 21.469999999999995C257.77999999999986 21.689999999999994 257.6899999999999 21.869999999999994 257.53999999999985 22.019999999999996L256.70999999999987 22.849999999999994C256.6899999999999 22.869999999999994 256.66999999999985 22.909999999999993 256.64999999999986 22.959999999999994C256.6399999999999 23.009999999999994 256.6299999999999 23.049999999999994 256.6299999999999 23.079999999999995C256.6699999999999 23.319999999999993 256.76999999999987 23.589999999999996 256.9299999999999 23.899999999999995C257.0699999999999 24.169999999999995 257.2799999999999 24.499999999999996 257.5599999999999 24.889999999999993C257.83999999999986 25.279999999999994 258.2399999999999 25.729999999999993 258.7599999999999 26.239999999999995C259.26999999999987 26.759999999999994 259.71999999999986 27.159999999999997 260.1199999999999 27.449999999999996C260.5099999999999 27.739999999999995 260.8399999999999 27.949999999999996 261.1099999999999 28.079999999999995C261.3699999999999 28.219999999999995 261.5799999999999 28.299999999999994 261.7199999999999 28.329999999999995L261.9299999999999 28.369999999999994C261.9499999999999 28.369999999999994 261.9899999999999 28.359999999999992 262.0399999999999 28.349999999999994C262.0899999999999 28.329999999999995 262.1299999999999 28.309999999999995 262.1499999999999 28.289999999999996L263.1099999999999 27.299999999999997C263.3199999999999 27.119999999999997 263.5499999999999 27.029999999999998 263.8299999999999 27.029999999999998C264.0199999999999 27.029999999999998 264.1699999999999 27.069999999999997 264.2799999999999 27.139999999999997L267.56999999999994 29.069999999999997C267.80999999999995 29.209999999999997 267.94999999999993 29.399999999999995 267.98999999999995 29.629999999999995C268.03 29.889999999999997 267.94999999999993 30.109999999999996 267.75999999999993 30.309999999999995Z " fill="#ffffff" fill-opacity="1" transform="matrix(1,0,0,1,-251,-17)"></path></svg>