<svg id="SvgjsSvg1043" xmlns="http://www.w3.org/2000/svg" version="1.1" xmlns:xlink="http://www.w3.org/1999/xlink" xmlns:svgjs="http://svgjs.com/svgjs" width="167" height="167" viewBox="0 0 167 167"><title>play-button</title><desc>Created with Avocode.</desc><defs id="SvgjsDefs1044"></defs><path id="SvgjsPath1045" d="M941.36 678.48C940.51 677.9 939.4 677.84 938.49 678.32C937.57 678.8000000000001 937 679.75 937 680.7800000000001L937 764.22C937 765.25 937.57 766.2 938.49 766.6800000000001C938.9 766.8900000000001 939.35 767.0000000000001 939.79 767.0000000000001C940.3399999999999 767.0000000000001 940.89 766.8400000000001 941.36 766.5200000000001L1002.78 724.8000000000001C1003.54 724.2800000000001 1004 723.4200000000001 1004 722.5000000000001C1004 721.5800000000002 1003.54 720.7200000000001 1002.78 720.2000000000002ZM943 686L997 722.5L943 759Z " fill="#ffffff" fill-opacity="1" transform="matrix(1,0,0,1,-876,-639)"></path><path id="SvgjsPath1046" d="M876 722.5C876 768.54 913.46 806 959.5 806C1005.54 806 1043 768.54 1043 722.5C1043 676.46 1005.54 639 959.5 639C913.46 639 876 676.46 876 722.5ZM882 723C882 679.99 916.99 645 960 645C1003.01 645 1038 679.99 1038 723C1038 766.01 1003.01 801 960 801C916.99 801 882 766.01 882 723Z " fill="#ffffff" fill-opacity="1" transform="matrix(1,0,0,1,-876,-639)"></path></svg>