<svg id="SvgjsSvg1119" xmlns="http://www.w3.org/2000/svg" version="1.1" xmlns:xlink="http://www.w3.org/1999/xlink" xmlns:svgjs="http://svgjs.com/svgjs" width="23.5" height="51.5" viewBox="0 0 23.5 51.5"><title>injector</title><desc>Created with Avocode.</desc><defs id="SvgjsDefs1120"><filter id="SvgjsFilter1122" width="200%" height="200%" x="-50%" y="-50%"><feMorphology id="SvgjsFeMorphology1123" operator="dilate" radius="0" result="SvgjsFeMorphology1123Out" in="SourceGraphic"></feMorphology><feOffset id="SvgjsFeOffset1124" dx="0" dy="1" result="SvgjsFeOffset1124Out" in="SvgjsFeMorphology1123Out"></feOffset><feGaussianBlur id="SvgjsFeGaussianBlur1125" stdDeviation="0.5 " result="SvgjsFeGaussianBlur1125Out" in="SvgjsFeOffset1124Out"></feGaussianBlur><feComposite id="SvgjsFeComposite1126" in="SvgjsFeGaussianBlur1125Out" in2="SourceAlpha" operator="out" result="SvgjsFeComposite1126Out"></feComposite></filter></defs><path id="SvgjsPath1121" d="M801.15 2280.16C801.15 2280.98 801.13 2281.72 801.15 2282.46C801.16 2282.84 801.01 2283.01 800.61 2283C800.22 2282.99 799.83 2282.99 799.44 2283C799.1 2283 798.94 2282.85 798.95 2282.51C798.96 2281.75 798.95 2280.9900000000002 798.95 2280.1600000000003C798.5300000000001 2280.1600000000003 798.1400000000001 2280.1600000000003 797.76 2280.1600000000003C796.76 2280.1600000000003 796.31 2279.7400000000002 796.31 2278.7700000000004C796.3 2276.5600000000004 796.31 2274.3500000000004 796.31 2272.1400000000003C796.31 2268.5000000000005 796.31 2264.8500000000004 796.3 2261.2100000000005C796.3 2260.9800000000005 796.18 2260.6900000000005 796.01 2260.5200000000004C793.46 2257.9500000000003 790.88 2255.3900000000003 788.31 2252.8300000000004C787.9 2252.4100000000003 787.89 2252.1900000000005 788.3299999999999 2251.78C789.2199999999999 2250.9500000000003 790.1099999999999 2250.13 791.0099999999999 2249.32C791.4699999999999 2248.9 791.6699999999998 2248.92 792.1099999999999 2249.3500000000004C793.3799999999999 2250.6200000000003 794.6499999999999 2251.8900000000003 795.93 2253.1600000000003C796.01 2253.2500000000005 796.1099999999999 2253.3300000000004 796.28 2253.4800000000005C796.29 2253.2600000000007 796.31 2253.1200000000003 796.31 2252.9700000000003C796.31 2251.6000000000004 796.3199999999999 2250.2300000000005 796.29 2248.86C796.29 2248.63 796.17 2248.35 796 2248.1800000000003C794.22 2246.38 792.43 2244.6000000000004 790.64 2242.8100000000004C790.24 2242.4100000000003 790.22 2242.2300000000005 790.64 2241.8400000000006C791.56 2240.9800000000005 792.48 2240.120000000001 793.42 2239.2800000000007C793.86 2238.890000000001 794.01 2238.9100000000008 794.43 2239.330000000001C795.2199999999999 2240.110000000001 796 2240.9100000000008 796.8 2241.6800000000007C796.9399999999999 2241.810000000001 797.18 2241.9000000000005 797.38 2241.9000000000005C799.88 2241.9100000000008 802.39 2241.9000000000005 804.89 2241.9100000000008C805.64 2241.9100000000008 805.96 2242.290000000001 805.96 2243.1100000000006C805.96 2247.0700000000006 805.9000000000001 2251.0300000000007 806 2254.9800000000005C806.03 2256.2900000000004 805.76 2257.2700000000004 804.5 2257.8700000000003C803.91 2258.1600000000003 803.77 2258.6200000000003 803.77 2259.2500000000005C803.8 2265.6900000000005 803.79 2272.1400000000003 803.78 2278.5900000000006C803.78 2278.8600000000006 803.76 2279.1500000000005 803.68 2279.4100000000008C803.51 2279.9300000000007 803.16 2280.1500000000005 802.5899999999999 2280.1600000000008C802.1299999999999 2280.1600000000008 801.68 2280.1600000000008 801.1499999999999 2280.1600000000008 " fill="#000000" fill-opacity="0.5" filter="url(#SvgjsFilter1122)" transform="matrix(1,0,0,1,-784,-2234)"></path><path id="SvgjsPath1127" d="M801.15 2280.16C801.15 2280.98 801.13 2281.72 801.15 2282.46C801.16 2282.84 801.01 2283.01 800.61 2283C800.22 2282.99 799.83 2282.99 799.44 2283C799.1 2283 798.94 2282.85 798.95 2282.51C798.96 2281.75 798.95 2280.9900000000002 798.95 2280.1600000000003C798.5300000000001 2280.1600000000003 798.1400000000001 2280.1600000000003 797.76 2280.1600000000003C796.76 2280.1600000000003 796.31 2279.7400000000002 796.31 2278.7700000000004C796.3 2276.5600000000004 796.31 2274.3500000000004 796.31 2272.1400000000003C796.31 2268.5000000000005 796.31 2264.8500000000004 796.3 2261.2100000000005C796.3 2260.9800000000005 796.18 2260.6900000000005 796.01 2260.5200000000004C793.46 2257.9500000000003 790.88 2255.3900000000003 788.31 2252.8300000000004C787.9 2252.4100000000003 787.89 2252.1900000000005 788.3299999999999 2251.78C789.2199999999999 2250.9500000000003 790.1099999999999 2250.13 791.0099999999999 2249.32C791.4699999999999 2248.9 791.6699999999998 2248.92 792.1099999999999 2249.3500000000004C793.3799999999999 2250.6200000000003 794.6499999999999 2251.8900000000003 795.93 2253.1600000000003C796.01 2253.2500000000005 796.1099999999999 2253.3300000000004 796.28 2253.4800000000005C796.29 2253.2600000000007 796.31 2253.1200000000003 796.31 2252.9700000000003C796.31 2251.6000000000004 796.3199999999999 2250.2300000000005 796.29 2248.86C796.29 2248.63 796.17 2248.35 796 2248.1800000000003C794.22 2246.38 792.43 2244.6000000000004 790.64 2242.8100000000004C790.24 2242.4100000000003 790.22 2242.2300000000005 790.64 2241.8400000000006C791.56 2240.9800000000005 792.48 2240.120000000001 793.42 2239.2800000000007C793.86 2238.890000000001 794.01 2238.9100000000008 794.43 2239.330000000001C795.2199999999999 2240.110000000001 796 2240.9100000000008 796.8 2241.6800000000007C796.9399999999999 2241.810000000001 797.18 2241.9000000000005 797.38 2241.9000000000005C799.88 2241.9100000000008 802.39 2241.9000000000005 804.89 2241.9100000000008C805.64 2241.9100000000008 805.96 2242.290000000001 805.96 2243.1100000000006C805.96 2247.0700000000006 805.9000000000001 2251.0300000000007 806 2254.9800000000005C806.03 2256.2900000000004 805.76 2257.2700000000004 804.5 2257.8700000000003C803.91 2258.1600000000003 803.77 2258.6200000000003 803.77 2259.2500000000005C803.8 2265.6900000000005 803.79 2272.1400000000003 803.78 2278.5900000000006C803.78 2278.8600000000006 803.76 2279.1500000000005 803.68 2279.4100000000008C803.51 2279.9300000000007 803.16 2280.1500000000005 802.5899999999999 2280.1600000000008C802.1299999999999 2280.1600000000008 801.68 2280.1600000000008 801.1499999999999 2280.1600000000008 " fill="#4a90e2" fill-opacity="1" transform="matrix(1,0,0,1,-784,-2234)"></path><path id="SvgjsPath1128" d="M800.98 2241.99C800.35 2241.99 799.72 2242.0099999999998 799.09 2241.99C798.25 2241.97 798.02 2241.6499999999996 798.02 2240.6099999999997C798.02 2240.1899999999996 798.04 2239.7699999999995 798.01 2239.3499999999995C797.9399999999999 2238.4499999999994 798.21 2238.0999999999995 799.05 2238.0299999999993C799.7299999999999 2237.9699999999993 800.42 2238.019999999999 801.1099999999999 2238.019999999999C801.7099999999999 2238.019999999999 802.31 2238.009999999999 802.9099999999999 2238.019999999999C803.7199999999998 2238.039999999999 803.9999999999999 2238.409999999999 803.9999999999999 2239.409999999999C803.9999999999999 2239.849999999999 803.9999999999999 2240.289999999999 803.9999999999999 2240.729999999999C803.9999999999999 2241.559999999999 803.7399999999999 2241.939999999999 803.0699999999999 2241.979999999999C802.3799999999999 2242.0099999999993 801.68 2241.979999999999 800.9799999999999 2241.979999999999C800.9799999999999 2241.9899999999993 800.9799999999999 2241.9899999999993 800.9799999999999 2241.9899999999993 " fill="#4a90e2" fill-opacity="1" transform="matrix(1,0,0,1,-784,-2234)"></path><path id="SvgjsPath1129" d="M801.48 2238C801.21 2238 800.9300000000001 2238.01 800.66 2237.99C800.26 2237.97 800.02 2237.6899999999996 800.01 2237.1699999999996C800 2236.3999999999996 800 2235.6299999999997 800.01 2234.8599999999997C800.02 2234.2899999999995 800.27 2234.0099999999998 800.71 2233.9999999999995C801.23 2233.9999999999995 801.76 2233.9999999999995 802.2800000000001 2233.9999999999995C802.7200000000001 2234.0099999999998 802.96 2234.2499999999995 802.9800000000001 2234.7999999999997C803.0100000000001 2235.6099999999997 803.0100000000001 2236.41 802.9800000000001 2237.22C802.9600000000002 2237.7599999999998 802.7300000000001 2237.97 802.3000000000002 2238C802.2700000000002 2238 802.2500000000002 2238 802.2200000000001 2238C801.9700000000001 2238 801.7300000000001 2238 801.4800000000001 2238 " fill="#4a90e2" fill-opacity="1" transform="matrix(1,0,0,1,-784,-2234)"></path><path id="SvgjsPath1130" d="M786.14 2245C786.23 2245.06 786.33 2245.12 786.41 2245.2C787.2199999999999 2245.99 788.02 2246.7799999999997 788.8299999999999 2247.56C789.04 2247.77 789.0699999999999 2247.96 788.8399999999999 2248.17C788.6099999999999 2248.39 788.3799999999999 2248.62 788.1499999999999 2248.85C787.9499999999998 2249.0499999999997 787.7599999999999 2249.0499999999997 787.5599999999998 2248.85C786.7399999999998 2248.04 785.9099999999999 2247.25 785.0999999999998 2246.42C785.0099999999998 2246.33 784.9599999999998 2246.04 785.0399999999998 2245.9500000000003C785.2899999999998 2245.6400000000003 785.5899999999998 2245.38 785.8899999999999 2245.1000000000004C785.9399999999998 2245.05 786.0299999999999 2245.0400000000004 786.1399999999999 2245.0000000000005 " fill="#4a90e2" fill-opacity="1" transform="matrix(1,0,0,1,-784,-2234)"></path><path id="SvgjsPath1131" d="M790.61 2242C790.0600000000001 2241.48 789.57 2241.01 789 2240.47C790.17 2239.2999999999997 791.31 2238.1699999999996 792.49 2237C793 2237.55 793.47 2238.06 794 2238.63C792.85 2239.78 791.72 2240.9 790.61 2242 " fill="#4a90e2" fill-opacity="1" transform="matrix(1,0,0,1,-784,-2234)"></path><path id="SvgjsPath1132" d="M789.23 2249C789.52 2249.26 789.79 2249.47 789.99 2249.74C790.04 2249.81 789.89 2250.06 789.78 2250.1899999999996C789.5699999999999 2250.4199999999996 789.3199999999999 2250.6299999999997 789.0899999999999 2250.8499999999995C788.8999999999999 2251.0399999999995 788.7299999999999 2251.0599999999995 788.5099999999999 2250.8699999999994C787.8399999999999 2250.2899999999995 787.8299999999999 2250.2899999999995 788.4899999999999 2249.6699999999996C788.7099999999999 2249.4599999999996 788.9499999999999 2249.2599999999998 789.2299999999999 2248.9999999999995 " fill="#4a90e2" fill-opacity="1" transform="matrix(1,0,0,1,-784,-2234)"></path></svg>