<svg id="SvgjsSvg1143" xmlns="http://www.w3.org/2000/svg" version="1.1" xmlns:xlink="http://www.w3.org/1999/xlink" xmlns:svgjs="http://svgjs.com/svgjs" width="31" height="24" viewBox="0 0 31 24"><title>placeholder-alert</title><desc>Created with Avocode.</desc><defs id="SvgjsDefs1144"></defs><path id="SvgjsPath1145" d="M1892.95 462.5C1896.3500000000001 462.5 1901.16 460.27 1904.52 458.17C1907.9 456.08000000000004 1911.5 453.09000000000003 1911.5 451C1911.5 448.97 1907.9 445.99 1904.52 443.88C1901.1399999999999 441.76 1896.33 439.5 1892.95 439.5C1886.63 439.5 1881.5 444.66 1881.5 451C1881.5 457.34 1886.63 462.5 1892.95 462.5ZM1901.32 451C1901.32 455.59 1897.6 459.33 1893.03 459.33C1888.46 459.33 1884.75 455.59 1884.75 451C1884.75 446.41 1888.46 442.67 1893.03 442.67C1897.6 442.67 1901.32 446.41 1901.32 451Z " fill="#ffffff" fill-opacity="1" transform="matrix(1,0,0,1,-1881,-439)"></path><path id="SvgjsPath1146" d="M1896.5 450.5C1896.5 451.6 1897.4 452.5 1898.5 452.5C1899.6 452.5 1900.5 451.6 1900.5 450.5C1900.5 449.4 1899.6 448.5 1898.5 448.5C1897.4 448.5 1896.5 449.4 1896.5 450.5Z " fill="#ffffff" fill-opacity="1" transform="matrix(1,0,0,1,-1881,-439)"></path><path id="SvgjsPath1147" d="M1886.5 449.71L1886.5 452.28999999999996C1886.5 452.65 1886.63 452.96999999999997 1886.87 453.2C1887.11 453.43 1887.4199999999998 453.53 1887.7399999999998 453.49L1893.4999999999998 452.45L1893.4999999999998 449.55L1887.7699999999998 448.51L1887.7399999999998 448.51C1887.4199999999998 448.46999999999997 1887.1099999999997 448.57 1886.87 448.8C1886.6299999999999 449.03000000000003 1886.5 449.35 1886.5 449.71000000000004Z " fill="#ffffff" fill-opacity="1" transform="matrix(1,0,0,1,-1881,-439)"></path></svg>